<?xml version="1.0" standalone="no"?>
<!DOCTYPE svg PUBLIC "-//W3C//DTD SVG 20010904//EN"
 "http://www.w3.org/TR/2001/REC-SVG-20010904/DTD/svg10.dtd">
<svg version="1.0" xmlns="http://www.w3.org/2000/svg"
 width="77.000000pt" height="77.000000pt" viewBox="0 0 77.000000 77.000000"
 preserveAspectRatio="xMidYMid meet">
<metadata>
Created by potrace 1.14, written by Peter Selinger 2001-2017
</metadata>
<g transform="translate(0.000000,77.000000) scale(0.100000,-0.100000)"
fill="#000000" stroke="none">
<path d="M69 753 c-13 -15 -12 -15 9 -4 23 12 28 21 13 21 -5 0 -15 -7 -22
-17z"/>
<path d="M115 760 c-3 -5 3 -10 14 -10 11 0 23 5 26 10 3 6 -3 10 -14 10 -11
0 -23 -4 -26 -10z"/>
<path d="M602 761 c-7 -4 -13 -26 -14 -49 0 -23 -5 -43 -12 -45 -6 -2 -1 -2
12 0 12 2 22 -1 22 -7 0 -6 15 -32 33 -58 40 -57 41 -104 1 -140 -14 -12 -24
-28 -21 -35 6 -18 67 47 67 72 0 28 17 27 26 -1 4 -15 1 -25 -12 -35 -10 -7
-13 -13 -8 -13 6 0 18 6 27 13 15 11 15 15 2 37 -8 14 -17 32 -21 40 -4 8 -21
32 -37 53 -33 43 -56 109 -52 150 2 15 3 27 2 27 -1 0 -8 -4 -15 -9z"/>
<path d="M525 752 c-18 -13 -38 -42 -29 -42 5 0 17 12 27 25 19 26 19 30 2 17z"/>
<path d="M550 740 c-6 -11 -7 -20 -3 -20 5 0 14 9 21 20 7 11 8 20 2 20 -5 0
-14 -9 -20 -20z"/>
<path d="M640 749 c-11 -8 -12 -12 -2 -16 6 -2 12 -14 12 -26 0 -12 17 -46 38
-76 55 -79 62 -93 62 -126 0 -30 -47 -95 -68 -95 -5 0 -12 -13 -15 -29 -4 -18
-14 -30 -27 -34 -12 -3 -24 -15 -27 -26 -4 -16 -13 -21 -40 -21 -23 0 -33 -4
-30 -12 2 -7 -2 -20 -10 -29 -7 -9 -17 -34 -20 -55 -6 -35 -5 -38 10 -25 15
11 18 10 27 -14 8 -20 7 -31 -1 -41 -10 -12 -14 -11 -27 7 -10 15 -17 18 -25
10 -14 -14 -50 -15 -42 -1 8 14 -8 13 -22 -1 -9 -9 -18 -8 -37 5 -34 22 -50
20 -28 -2 9 -11 20 -17 25 -15 4 2 7 0 7 -6 0 -6 7 -7 17 -4 11 4 14 3 9 -5
-5 -8 -2 -10 8 -6 23 9 19 -9 -5 -24 -14 -9 -19 -10 -14 -2 5 8 1 11 -11 8
-15 -3 -18 -10 -16 -33 2 -17 8 -32 13 -33 5 -2 7 -8 3 -13 -3 -5 0 -9 5 -9 6
0 11 7 11 15 0 10 7 15 18 13 9 -2 16 3 14 10 -1 6 5 12 13 12 18 0 20 -17 3
-22 -25 -9 5 -28 43 -28 29 0 38 3 33 13 -6 10 -4 10 7 0 8 -9 47 -13 116 -13
l103 0 0 46 c0 47 -16 74 -44 74 -18 0 -21 15 -6 25 20 12 9 26 -17 23 -19 -2
-27 1 -25 10 1 8 -2 11 -8 7 -16 -10 -50 5 -50 21 0 11 4 12 19 4 17 -8 19 -7
16 15 -1 14 0 23 3 20 3 -2 11 0 19 7 11 9 11 14 -3 30 -16 17 -16 21 6 68 13
28 32 58 43 67 53 49 60 109 18 162 -41 52 -74 121 -73 153 1 30 -5 34 -28 17z
m-63 -630 c-5 -17 -3 -18 10 -7 14 11 15 10 9 -9 -8 -24 12 -43 24 -23 5 8 11
1 19 -21 6 -18 9 -35 6 -38 -9 -8 -26 22 -20 36 2 7 -2 10 -10 6 -11 -4 -12
-10 -5 -23 15 -28 12 -35 -8 -17 -10 10 -22 14 -25 11 -4 -4 -13 -2 -21 5 -11
9 -15 8 -20 -4 -7 -19 -46 -20 -46 -1 0 17 28 41 37 32 3 -3 1 -6 -5 -6 -7 0
-12 -7 -12 -17 0 -14 2 -14 20 2 11 10 20 27 20 37 0 21 17 58 27 58 3 0 3 -9
0 -21z m115 9 c-9 -9 -15 -9 -24 0 -9 9 -7 12 12 12 19 0 21 -3 12 -12z m-62
-18 c0 -5 -2 -10 -4 -10 -3 0 -8 5 -11 10 -3 6 -1 10 4 10 6 0 11 -4 11 -10z"/>
<path d="M275 740 c-3 -5 1 -10 9 -10 9 0 16 5 16 10 0 6 -4 10 -9 10 -6 0
-13 -4 -16 -10z"/>
<path d="M432 720 c-7 -11 -19 -20 -26 -20 -8 0 -18 -4 -21 -10 -3 -5 -1 -10
4 -10 14 0 79 59 66 60 -6 0 -16 -9 -23 -20z"/>
<path d="M225 720 c-8 -13 5 -13 25 0 13 8 13 10 -2 10 -9 0 -20 -4 -23 -10z"/>
<path d="M706 712 c-2 -4 12 -9 32 -10 28 -2 33 0 22 8 -18 12 -47 13 -54 2z"/>
<path d="M195 690 c-3 -5 -1 -10 5 -10 6 0 8 -4 5 -10 -3 -5 -13 -10 -21 -10
-9 0 -12 5 -8 12 4 7 3 8 -5 4 -6 -4 -9 -12 -6 -17 10 -15 43 -10 88 13 38 20
40 23 18 26 -13 2 -28 -2 -33 -10 -7 -10 -11 -10 -15 0 -6 15 -19 16 -28 2z"/>
<path d="M87 677 c-4 -10 2 -13 20 -9 18 3 21 7 11 13 -18 12 -25 11 -31 -4z"/>
<path d="M5 581 c-10 -17 10 -20 35 -5 l25 13 -27 1 c-15 0 -29 -4 -33 -9z"/>
<path d="M382 570 c-22 -18 -22 -19 -2 -25 15 -5 19 -12 15 -26 -7 -22 -5 -22
29 -9 25 9 26 8 20 -18 -4 -15 -11 -31 -15 -36 -5 -6 -9 -18 -9 -29 0 -11 -4
-15 -11 -11 -8 4 -9 0 -4 -15 4 -13 1 -27 -10 -37 -18 -19 -33 -11 -17 8 14
17 26 102 14 94 -10 -6 -21 -51 -28 -120 -2 -23 -6 -55 -9 -73 -3 -17 -2 -34
3 -37 12 -7 35 71 26 87 -4 6 2 4 13 -6 20 -17 24 -42 9 -66 -5 -7 -3 -18 3
-24 6 -6 11 -7 11 -3 0 5 7 3 15 -4 12 -10 15 -10 15 1 0 11 2 11 9 0 6 -9 6
-22 1 -31 -6 -12 -4 -16 9 -17 13 -1 17 7 18 39 1 38 0 40 -26 36 -25 -4 -27
-1 -28 32 0 19 1 30 4 23 3 -8 11 -8 30 2 14 8 29 17 32 22 3 4 23 17 43 27
21 10 45 30 53 42 22 34 0 30 -31 -5 -16 -18 -38 -30 -59 -33 -19 -2 -32 -1
-29 3 2 4 0 10 -5 13 -5 3 -12 -5 -15 -19 -4 -14 -11 -25 -17 -25 -7 0 -8 7
-4 18 20 46 38 130 32 152 -4 14 -19 39 -35 57 -27 32 -27 32 -50 13z"/>
<path d="M550 517 c0 -5 -7 -6 -16 -3 -8 3 -12 2 -9 -4 3 -6 1 -10 -6 -10 -7
0 -10 -2 -7 -5 4 -5 78 22 78 28 0 1 -9 3 -20 3 -11 0 -20 -4 -20 -9z"/>
<path d="M641 493 c-10 -26 -10 -27 4 -9 8 11 15 23 15 28 0 15 -7 8 -19 -19z"/>
<path d="M331 484 c0 -11 3 -14 6 -6 3 7 2 16 -1 19 -3 4 -6 -2 -5 -13z"/>
<path d="M105 470 c-3 -5 -1 -10 4 -10 6 0 11 5 11 10 0 6 -2 10 -4 10 -3 0
-8 -4 -11 -10z"/>
<path d="M275 462 c-12 -13 -3 -23 15 -17 11 4 20 2 20 -4 0 -6 5 -11 10 -11
6 0 10 6 10 14 0 13 -45 28 -55 18z"/>
<path d="M351 444 c0 -11 3 -14 6 -6 3 7 2 16 -1 19 -3 4 -6 -2 -5 -13z"/>
<path d="M13 439 c-12 -5 -6 -8 20 -8 20 -1 37 3 37 7 0 10 -33 10 -57 1z"/>
<path d="M90 440 c-12 -7 -10 -9 8 -7 12 0 22 5 22 9 0 11 -12 10 -30 -2z"/>
<path d="M111 411 c-8 -6 -9 -11 -3 -15 6 -3 14 -1 17 5 9 14 2 20 -14 10z"/>
<path d="M317 365 c-15 -22 -16 -25 -2 -25 8 0 15 -4 15 -10 0 -5 -6 -10 -13
-10 -7 0 -18 -13 -24 -30 -12 -32 -3 -39 26 -21 12 8 31 122 20 121 -2 0 -12
-12 -22 -25z"/>
<path d="M240 349 c0 -5 5 -7 10 -4 6 3 10 8 10 11 0 2 -4 4 -10 4 -5 0 -10
-5 -10 -11z"/>
<path d="M23 342 c-13 -2 -23 -7 -23 -12 0 -9 30 -24 43 -22 4 1 7 -3 7 -9 0
-8 5 -8 15 1 8 7 15 9 15 5 0 -4 7 -2 15 5 8 6 19 9 25 5 18 -11 80 -16 80 -6
0 8 -39 20 -82 26 -10 1 -19 4 -20 5 -5 4 -51 5 -75 2z"/>
<path d="M241 321 c-11 -7 -10 -10 3 -18 15 -8 15 -11 -4 -28 -11 -10 -20 -13
-20 -7 0 18 -30 14 -36 -3 -5 -13 -9 -13 -22 -3 -12 10 -14 10 -8 1 4 -7 2
-13 -3 -13 -6 0 -11 5 -11 12 0 6 -14 -1 -31 -18 -17 -16 -27 -22 -24 -12 4 9
2 19 -4 22 -6 4 -8 -6 -6 -24 4 -27 1 -30 -23 -30 -45 0 -52 -16 -52 -112 l0
-88 88 1 c62 0 81 3 65 9 -29 12 -30 30 -2 23 18 -5 20 -2 18 23 -3 34 8 74
22 74 5 0 9 9 9 20 0 11 3 20 8 20 12 0 31 49 21 56 -17 10 -9 24 12 21 15 -1
23 4 25 18 1 11 4 29 6 39 3 22 -11 30 -31 17z m-81 -217 c0 -8 -4 -14 -9 -14
-6 0 -9 9 -8 19 1 22 17 18 17 -5z"/>
<path d="M0 300 c0 -5 5 -10 11 -10 5 0 7 5 4 10 -3 6 -8 10 -11 10 -2 0 -4
-4 -4 -10z"/>
<path d="M3 250 c1 -22 37 -23 37 -2 0 11 -8 18 -19 18 -12 0 -19 -7 -18 -16z"/>
<path d="M325 171 c-3 -5 -1 -12 5 -16 5 -3 10 1 10 9 0 18 -6 21 -15 7z"/>
<path d="M249 98 c-6 -18 -4 -98 2 -98 5 0 6 7 3 15 -4 8 -1 15 5 15 6 0 11
-6 11 -13 0 -7 12 -13 28 -14 15 0 19 1 10 4 -10 2 -18 11 -18 19 0 8 -6 13
-12 11 -7 -1 -14 5 -14 13 -1 8 -3 20 -4 25 -1 6 -2 13 -1 18 1 6 -8 11 -10 5z"/>
<path d="M352 81 c-7 -4 -15 -24 -17 -44 -3 -32 0 -37 18 -37 18 0 22 6 22 30
0 20 -4 29 -13 25 -9 -3 -10 0 -2 15 12 22 11 23 -8 11z"/>
<path d="M196 68 c3 -5 -1 -17 -10 -27 -15 -17 -15 -19 0 -32 15 -12 16 -11
10 9 -5 15 -3 24 7 27 17 7 18 32 1 32 -7 0 -11 -4 -8 -9z"/>
<path d="M311 44 c0 -11 3 -14 6 -6 3 7 2 16 -1 19 -3 4 -6 -2 -5 -13z"/>
<path d="M210 23 c0 -13 5 -23 10 -23 13 0 13 11 0 30 -8 12 -10 11 -10 -7z"/>
</g>
</svg>
